<?xml version="1.0" encoding="utf-8"?>
<!-- Generator: Adobe Illustrator 19.2.1, SVG Export Plug-In . SVG Version: 6.00 Build 0)  -->
<svg version="1.1" id="layer" xmlns="http://www.w3.org/2000/svg" xmlns:xlink="http://www.w3.org/1999/xlink" x="0px" y="0px"
	 viewBox="0 0 652 652" style="enable-background:new 0 0 652 652;" xml:space="preserve">
<style type="text/css">
	.st0{opacity:0.47;fill:#5690FF;enable-background:new    ;}
	.st1{fill:url(#SVGID_1_);}
	.st2{fill:#363F5A;}
</style>
<path class="st0" d="M126.3,320.3l-24.1-15.9l-66-40.6c5,5.6,8.9,12.1,11.5,19.1c1.7,4.5,2.9,9.3,3.6,14.1l49.5,31
	c1.8,1.3,2.3,3.8,1,5.6c0,0,0,0,0,0l-0.2,0.2l0,0l-0.2,0.2l-0.2,0.2h-0.1l-0.3,0.3L53,363.7c-1.3,0.9-3.1,0.6-4-0.7c0,0,0,0,0,0
	c-0.3-0.5-0.5-1-0.5-1.6v-66.4c-0.7-4.1-1.7-8.1-3.2-12c-3.4-9.6-9.4-18.1-17.4-24.6l-1.6-1v124.9c0,6.8,5.5,12.2,12.3,12.2
	c2.4,0,4.7-0.7,6.7-2l81-50.5c6-3.9,7.6-12,3.7-18C129.1,322.6,127.8,321.3,126.3,320.3z"/>
<linearGradient id="SVGID_1_" gradientUnits="userSpaceOnUse" x1="26.4004" y1="1267.8094" x2="132.1927" y2="1267.8094" gradientTransform="matrix(1 0 0 1 0 -941.89)">
	<stop  offset="0" style="stop-color:#5690FF;stop-opacity:0.99"/>
	<stop  offset="1" style="stop-color:#0052E0"/>
</linearGradient>
<path class="st1" d="M126.3,320.3l-24.1-15.9c8,6.5,9.3,18.3,2.7,26.3c0,0-0.1,0.1-0.1,0.1c-0.9,1.1-2,2.2-3.2,3.1l0,0l-0.2,0.2
	l-0.2,0.2l0,0l-0.3,0.3l-34.4,20.3l0,0l-13.2,9c-1.2,1-3,0.7-4-0.5c-0.1-0.1-0.1-0.2-0.2-0.2c-0.3-0.5-0.5-1-0.5-1.6V295
	c-0.7-4.1-1.8-8.2-3.4-12.1c-3.4-9.6-9.4-18.1-17.4-24.6l-1.6-1v124.9c0,6.8,5.5,12.2,12.3,12.2c2.4,0,4.7-0.7,6.7-2l81-50.5
	c6-3.9,7.6-12,3.7-18C129.1,322.6,127.8,321.3,126.3,320.3z"/>
<path class="st2" d="M200.6,351.4h-11.6c-0.8,0-1.1-0.8-1.5-1.5l-10.2-19.2h-0.8c-1.6,0-3.9-0.2-5.3-0.2v19.4c0,0.8-0.7,1.5-1.5,1.5
	h-9.9c-0.8,0-1.5-0.7-1.5-1.5V299c0-2.6,1.1-3.3,3.4-3.7c5.1-0.7,10.2-1,15.4-1c12.9,0,22.8,4.3,22.8,17.8v1
	c0.4,6.7-3.6,12.8-9.8,15.2l11.5,21.4c0.1,0.3,0.2,0.6,0.2,0.8C201.7,351.1,201.4,351.4,200.6,351.4z M186.9,312.2
	c0-4.6-3.6-6.7-9.9-6.7c-1.1,0-5,0.2-5.9,0.2v14.6l5.3,0.2c7.9,0,10.6-2,10.6-7.2V312.2z"/>
<path class="st2" d="M244.2,333.6H220v0.2c0,4.3,1.8,8.3,7.9,8.3c4.8,0,11.5-0.4,14.6-0.7h0.2c0.8,0,1.4,0.4,1.4,1.2v5.8
	c0,1.2-0.3,1.7-1.6,2c-5.1,1.3-10.3,1.9-15.6,1.8c-9.2,0-19-4.9-19-19.5v-5.3c0-12.2,7.1-19.9,19.2-19.9s18.8,8.5,18.8,19.9v4.4
	C245.8,332.9,245.2,333.6,244.2,333.6z M233.8,325.6c0-5.6-2.6-8.4-6.8-8.4s-7,2.9-7,8.4v0.3h13.8V325.6z"/>
<path class="st2" d="M289.2,351.4h-9.3c-0.8,0-1.5-0.7-1.5-1.6v-26.7c0-3.3-0.5-5.7-4.5-5.7h-3.8c-3.9,0-4.5,2.4-4.5,5.7v26.8
	c0,0.8-0.7,1.5-1.5,1.6h-9.4c-0.8-0.1-1.5-0.8-1.4-1.6v-26.8c0-10.6,5.8-15.9,16.8-15.9h3.8c10.9,0,16.8,5.3,16.8,15.9v26.8
	C290.7,350.7,290,351.4,289.2,351.4z"/>
<path class="st2" d="M333.3,350.2c-5.3,1.3-10.7,1.9-16.1,2c-12.3,0-19-7.1-19-19.4v-6c0-11.9,6.2-19.4,19-19.4
	c2.1,0.1,4.2,0.2,6.2,0.5v-13.2c0-0.8,0.7-1.5,1.5-1.5h9.1c0.8,0,1.5,0.7,1.6,1.5v53.2C335.5,349.2,335.2,349.7,333.3,350.2z
	 M323.3,317.9c-2.1-0.2-4.1-0.4-6.2-0.4c-5.3,0-6.8,3.9-6.8,9.3v5.9c0,5.3,1.5,9.3,6.8,9.3c2.1,0,4.2-0.2,6.2-0.4V317.9z"/>
<path class="st2" d="M379.8,333.6h-24.2v0.2c0,4.3,1.8,8.3,7.9,8.3c4.8,0,11.5-0.4,14.6-0.7l0,0c0.8,0,1.4,0.4,1.4,1.2v5.8
	c0,1.2-0.3,1.7-1.6,2c-5.1,1.3-10.3,1.9-15.6,1.8c-9.2,0-19-4.9-19-19.5v-5.3c0-12.2,7.1-19.9,19.2-19.9c12.1,0,18.7,8.5,18.7,19.9
	v4.4C381.4,332.9,380.9,333.6,379.8,333.6z M369.4,325.6c0-5.6-2.6-8.4-6.8-8.4c-4.2,0-7,2.9-7,8.4v0.3h13.8V325.6z"/>
<path class="st2" d="M408.5,317.6c-2.3,0-4.6,0.1-6.8,0.4v31.9c0,0.8-0.7,1.5-1.5,1.6H391c-0.8-0.1-1.5-0.7-1.6-1.6V312
	c0-1.1,0.6-1.8,2.4-2.4c5.4-1.7,11.1-2.4,16.8-2.2c0.9,0,2,0.4,2,1.4v7.4C410.6,317,410,317.6,408.5,317.6z"/>
<path class="st2" d="M439.3,317.2H429v32.8c-0.1,0.8-0.7,1.5-1.6,1.6h-9.2c-0.8-0.1-1.5-0.7-1.6-1.6v-45c0-10.6,7.1-12.8,14.8-12.8
	c2.8,0.1,5.5,0.3,8.3,0.7c0.8,0.2,1.1,0.4,1.1,0.9v6.4c0,0.8-0.3,1.2-1.1,1.2h-7.9c-2.4,0-2.9,1.4-2.9,3.7v3h10.3
	c0.8,0,1.5,0.7,1.5,1.5v6C440.8,316.4,440.2,317.1,439.3,317.2C439.3,317.2,439.3,317.2,439.3,317.2L439.3,317.2z"/>
<path class="st2" d="M465.1,352.1c-12.3,0-19-7.7-19-19.7v-5.3c0-12.1,6.7-19.7,19-19.7c12.3,0,19,7.7,19,19.7v5.3
	C484.1,344.5,477.4,352.1,465.1,352.1z M471.8,327.1c0-6.1-2.4-9.3-6.7-9.3c-4.4,0-6.8,3.1-6.8,9.3v5.3c0,6.1,2.4,9.3,6.8,9.3
	c4.4,0,6.7-3.2,6.7-9.3V327.1z"/>
<path class="st2" d="M511.1,317.6c-2.3,0-4.6,0.1-6.8,0.4v31.9c0,0.8-0.7,1.5-1.5,1.6h-9.2c-0.8-0.1-1.5-0.7-1.6-1.6V312
	c0-1.1,0.6-1.8,2.4-2.4c5.4-1.7,11.1-2.4,16.8-2.2c0.9,0,2,0.4,2,1.4v7.4C513.2,317,512.5,317.6,511.1,317.6z"/>
<path class="st2" d="M554.7,333.6h-24.2v0.2c0,4.3,1.8,8.3,7.9,8.3c4.8,0,11.5-0.4,14.6-0.7h0.2c0.8,0,1.4,0.4,1.4,1.2v5.8
	c0,1.2-0.3,1.7-1.6,2c-5.1,1.3-10.3,1.9-15.6,1.8c-9.2,0-19-4.9-19-19.5v-5.3c0-12.2,7.1-19.9,19.2-19.9s18.7,8.5,18.7,19.9v4.4
	C556.4,332.7,555.6,333.5,554.7,333.6z M544.3,325.6c0-5.6-2.6-8.4-6.8-8.4s-7,2.9-7,8.4v0.3h13.8V325.6z"/>
<path class="st2" d="M578.4,352.1c-4.7,0-9.3-0.6-13.8-1.7c-0.8-0.1-1.5-0.9-1.4-1.7v-6.1c0-0.8,0.6-1.4,1.4-1.4c0,0,0,0,0,0h0.3
	c4.1,0.5,10.6,1.1,12.9,1.1c3.7,0,4.5-1,4.5-3c0-1.1-0.7-2-2.8-3.2l-9.9-5.7c-4.2-2.2-6.8-6.5-6.7-11.2c0-7.7,5.1-11.8,15.6-11.8
	c4.6-0.1,9.1,0.5,13.5,1.7c0.8,0.1,1.5,0.9,1.4,1.7v6.1c0,0.9-0.4,1.4-1.2,1.4h-0.3c-4.2-0.6-8.4-0.9-12.6-1c-3,0-4,0.4-4,2.2
	c0,1.1,0.8,1.7,2.4,2.6l9.4,5.3c6.3,3.7,7.7,7.6,7.7,11.7C594.6,346.5,589.5,352.1,578.4,352.1z"/>
<path class="st2" d="M624.9,317.2h-10.4v22.5c0,2.6,1.2,3.1,4.5,3.1h5.7c1,0,1.6,0.4,1.6,1.3v5.8c0,0.8-0.5,1.4-1.5,1.5
	c-3,0.5-6.1,0.7-9.1,0.7c-8.5,0-13.5-2.6-13.5-12.5v-38.1c0.1-0.8,0.7-1.4,1.5-1.5l9.3-1.6h0.2c0.8,0.1,1.4,0.7,1.4,1.5v7.9h10.4
	c0.8,0,1.5,0.7,1.5,1.5v6.2C626.4,316.4,625.8,317.1,624.9,317.2C624.9,317.2,624.9,317.2,624.9,317.2L624.9,317.2z"/>
</svg>
